<?xml version="1.0" encoding="UTF-8"?>
<svg id="Ebene_1" xmlns="http://www.w3.org/2000/svg" xmlns:xlink="http://www.w3.org/1999/xlink" version="1.1" viewBox="0 0 512 512">
  <!-- Generator: Adobe Illustrator 29.0.1, SVG Export Plug-In . SVG Version: 2.1.0 Build 192)  -->
  <defs>
    <style>
      .st0 {
        fill: none;
      }

      .st1 {
        fill: url(#Unbenannter_Verlauf);
      }

      .st2 {
        fill: #c0c;
      }

      .st3 {
        fill: #606;
      }

      .st4 {
        fill: #590059;
      }

      .st5 {
        fill: #a600a6;
      }

      .st6 {
        fill: purple;
      }

      .st7 {
        clip-path: url(#clippath);
      }
    </style>
    <clipPath id="clippath">
      <path class="st0" d="M350.3,3.9h0c-17.3,13.4-29.1,33.9-29.1,56.7v439.5c0,2.4-1.6,4.7-3.9,6.3-2.4,1.6-5.5,1.6-7.9.8l-40.8-19.3-3.3-1.5-71.1-33.6-13.2-6.2-44.1,22.6-.8.4-10.6,5.5-5.7,2.9-56.9,29.2c-1.6.8-2.4.8-3.9.8s-2.4,0-3.9-.8c-2.4-1.6-3.9-4.7-3.9-7.1V74.8c-.2-38.6,30.2-69.7,68.6-70.8h230.5Z"/>
    </clipPath>
    <linearGradient id="Unbenannter_Verlauf" data-name="Unbenannter Verlauf" x1="246.6" y1="429.6" x2="246.6" y2="544.7" gradientTransform="translate(0 509.6) scale(1 -1)" gradientUnits="userSpaceOnUse">
      <stop offset="0" stop-color="#000" stop-opacity="0"/>
      <stop offset="1" stop-color="#000"/>
    </linearGradient>
  </defs>
  <g class="st7">
    <g>
      <rect class="st3" x="50.8" y="-58.5" width="65.3" height="780.1"/>
      <rect class="st6" x="115.9" y="-58.5" width="65.3" height="780.1"/>
      <rect class="st5" x="181" y="-58.5" width="65.3" height="780.1"/>
      <polygon class="st2" points="322.9 721.6 246.2 721.6 246.2 -58.5 373.2 -57.8 322.9 721.6"/>
      <rect class="st1" x="21.5" y="-35.1" width="450.1" height="115.1"/>
    </g>
  </g>
  <path class="st4" d="M457.5,65.4v78.8c0,4.7-3.9,7.9-7.9,7.9h-106.3c-3.9,0-7.9-3.1-7.9-7.9v-78.8c0-18.3,8-34.7,20.7-45.9,10.9-9.6,25.1-15.5,40.7-15.5,33.1,0,60.7,27.6,60.7,61.4h0Z"/>
</svg>